<svg width="247" height="181" viewBox="0 0 247 181" fill="none" xmlns="http://www.w3.org/2000/svg">
<path d="M145.583 46.7244V47.1847H146.043H152.258C157.286 47.1847 161.119 51.0181 161.119 56.0462V61.8005H99.8939V56.0462C99.8939 51.0181 103.727 47.1847 108.755 47.1847H114.97H115.43V46.7244V43.6171C115.43 42.7895 115.704 42.1356 116.15 41.6898C116.596 41.244 117.25 40.9701 118.077 40.9701C118.905 40.9701 119.559 41.244 120.005 41.6898C120.45 42.1356 120.724 42.7895 120.724 43.6171V46.7244V47.1847H121.185H139.828H140.289V46.7244V43.6171C140.289 42.7895 140.563 42.1356 141.008 41.6898C141.454 41.244 142.108 40.9701 142.936 40.9701C143.763 40.9701 144.417 41.244 144.863 41.6898C145.309 42.1356 145.583 42.7895 145.583 43.6171V46.7244ZM108.755 102.195C103.727 102.195 99.8939 98.3619 99.8939 93.3338V68.9358H161.119V93.3338C161.119 98.3619 157.286 102.195 152.258 102.195H108.755Z" fill="#DADADA" stroke="#DDCECE" stroke-width="0.92068"/>
<path d="M117.893 74.5084C118.169 73.6601 119.369 73.6601 119.645 74.5084L120.009 75.6305C120.132 76.0099 120.486 76.2667 120.885 76.2667H122.065C122.957 76.2667 123.327 77.408 122.606 77.9322L121.651 78.6258C121.329 78.8602 121.194 79.2758 121.317 79.6551L121.681 80.7773C121.957 81.6255 120.986 82.3309 120.265 81.8066L119.31 81.1131C118.987 80.8786 118.551 80.8786 118.228 81.1131L117.273 81.8066C116.552 82.3309 115.581 81.6255 115.856 80.7773L116.221 79.6551C116.344 79.2758 116.209 78.8602 115.887 78.6258L114.932 77.9322C114.21 77.408 114.581 76.2667 115.473 76.2667H116.653C117.052 76.2667 117.405 76.0099 117.529 75.6305L117.893 74.5084Z" fill="#DA8484"/>
<path d="M117.9 87.1857C118.188 86.3635 119.35 86.3635 119.638 87.1857L120 88.2207C120.129 88.59 120.478 88.8373 120.869 88.8373H121.887C122.796 88.8373 123.155 90.0132 122.402 90.5212L121.699 90.9958C121.352 91.2298 121.207 91.6682 121.345 92.0631L121.641 92.9088C121.933 93.7451 120.991 94.4716 120.257 93.9761L119.284 93.3198C118.973 93.1099 118.565 93.1099 118.254 93.3198L117.281 93.9761C116.547 94.4716 115.605 93.7451 115.897 92.9088L116.193 92.0631C116.331 91.6682 116.186 91.2298 115.839 90.9958L115.136 90.5212C114.383 90.0132 114.742 88.8373 115.651 88.8373H116.669C117.06 88.8373 117.409 88.59 117.538 88.2207L117.9 87.1857Z" fill="#DA8484"/>
<path d="M128.93 74.9981C129.18 74.0999 130.454 74.0999 130.704 74.9981L130.87 75.593C130.981 75.9912 131.343 76.2667 131.757 76.2667H132.561C133.418 76.2667 133.81 77.3354 133.156 77.8897L132.274 78.6377C131.999 78.8701 131.886 79.2408 131.982 79.587L132.26 80.5848C132.503 81.4587 131.47 82.1207 130.778 81.5342L130.412 81.2245C130.069 80.9334 129.565 80.9334 129.222 81.2245L128.856 81.5342C128.164 82.1207 127.131 81.4587 127.374 80.5848L127.652 79.587C127.749 79.2408 127.635 78.8701 127.36 78.6377L126.478 77.8897C125.824 77.3354 126.216 76.2667 127.073 76.2667H127.878C128.291 76.2667 128.654 75.9912 128.764 75.593L128.93 74.9981Z" fill="#DA8484"/>
<path d="M128.935 87.6424C129.198 86.7675 130.437 86.7675 130.699 87.6424L130.86 88.1811C130.977 88.5706 131.336 88.8373 131.742 88.8373H132.412C133.286 88.8373 133.669 89.9409 132.982 90.4814L132.316 91.0053C132.019 91.2392 131.895 91.631 132.004 91.9933L132.228 92.7395C132.486 93.6009 131.483 94.2837 130.776 93.7275L130.386 93.4206C130.052 93.1576 129.582 93.1576 129.248 93.4206L128.858 93.7275C128.151 94.2837 127.148 93.6009 127.406 92.7395L127.63 91.9933C127.739 91.631 127.615 91.2392 127.318 91.0053L126.652 90.4814C125.965 89.9409 126.348 88.8373 127.222 88.8373H127.892C128.298 88.8373 128.657 88.5706 128.774 88.1811L128.935 87.6424Z" fill="#DA8484"/>
<path d="M140.909 74.5084C141.185 73.6601 142.385 73.6601 142.66 74.5084L143.025 75.6305C143.148 76.0099 143.502 76.2667 143.9 76.2667H145.08C145.972 76.2667 146.343 77.408 145.622 77.9322L144.667 78.6258C144.344 78.8602 144.209 79.2758 144.333 79.6551L144.697 80.7773C144.973 81.6255 144.002 82.3309 143.28 81.8066L142.326 81.1131C142.003 80.8786 141.566 80.8786 141.243 81.1131L140.289 81.8066C139.567 82.3309 138.596 81.6255 138.872 80.7773L139.237 79.6551C139.36 79.2758 139.225 78.8602 138.902 78.6258L137.948 77.9322C137.226 77.408 137.597 76.2667 138.489 76.2667H139.669C140.068 76.2667 140.421 76.0099 140.544 75.6305L140.909 74.5084Z" fill="#DA8484"/>
<path d="M140.916 87.1857C141.203 86.3635 142.366 86.3635 142.654 87.1857L143.016 88.2207C143.145 88.59 143.494 88.8373 143.885 88.8373H144.903C145.811 88.8373 146.171 90.0132 145.418 90.5212L144.714 90.9958C144.368 91.2298 144.222 91.6682 144.36 92.0631L144.656 92.9088C144.949 93.7451 144.007 94.4716 143.272 93.9761L142.3 93.3198C141.988 93.1099 141.581 93.1099 141.27 93.3198L140.297 93.9761C139.562 94.4716 138.62 93.7451 138.913 92.9088L139.209 92.0631C139.347 91.6682 139.202 91.2298 138.855 90.9958L138.151 90.5212C137.398 90.0132 137.758 88.8373 138.666 88.8373H139.684C140.076 88.8373 140.424 88.59 140.553 88.2207L140.916 87.1857Z" fill="#DA8484"/>
<path d="M12.7744 84.0124C12.7744 79.3284 16.6068 75.4961 21.2907 75.4961C25.9747 75.4961 29.807 79.3284 29.807 84.0124C29.807 88.6963 25.9747 92.5287 21.2907 92.5287C16.6068 92.5287 12.7744 88.6963 12.7744 84.0124ZM0 100.47C0 98.4356 1.64881 96.7868 3.68272 96.7868H24.3687C25.1362 96.7868 25.8846 96.547 26.5092 96.1008L52.6203 77.45C54.1698 76.3433 56.3074 76.6002 57.5505 78.0426L58.4466 79.0823C59.8065 80.6601 59.5881 83.0509 57.9649 84.3563L49.4606 91.1956C46.2815 93.7523 49.0008 98.8136 52.8875 97.574L54.8948 96.9339C55.2009 96.8362 55.4928 96.699 55.7633 96.5257L85.8714 77.2256C87.4182 76.234 89.4593 76.5343 90.655 77.9293L91.1636 78.5227C92.5328 80.12 92.2878 82.5378 90.6261 83.8281L58.8201 108.525C57.9725 109.183 57.4541 110.178 57.4005 111.249L55.5308 148.644C55.4328 150.604 53.8151 152.143 51.8527 152.143H50.3418C48.3798 152.143 46.7623 150.604 46.6638 148.645L44.7934 111.435C44.7104 109.783 43.5366 108.39 41.9231 108.027L30.2059 105.393C29.9408 105.333 29.6699 105.303 29.3982 105.303H3.68272C1.64881 105.303 0 103.654 0 101.62V100.47Z" fill="#C4B4B4"/>
<path d="M217.281 11.9688L214.77 18.6646L208.074 21.1755L214.77 23.6865L217.281 30.3823L219.792 23.6865L226.488 21.1755L219.792 18.6646L217.281 11.9688Z" fill="#EED5D5"/>
<path d="M55.6996 0L53.3142 6.36106L46.9531 8.74646L53.3142 11.1319L55.6996 17.4929L58.085 11.1319L64.446 8.74646L58.085 6.36106L55.6996 0Z" fill="#EED5D5"/>
<path d="M167.103 164.802L164.969 170.493L159.277 172.628L164.969 174.762L167.103 180.453L169.237 174.762L174.929 172.628L169.237 170.493L167.103 164.802Z" fill="#D3D2D2"/>
<path d="M178.391 100C178.391 116.907 192.095 130.611 209.002 130.611C225.909 130.611 239.613 116.907 239.613 100H178.391Z" fill="white"/>
<path d="M222.722 100C222.722 116.906 218.5 130.611 209 130.611C225.907 130.611 239.611 116.906 239.611 100H222.722Z" fill="#D0CFCE"/>
<path d="M178.391 100C178.391 116.907 192.095 130.611 209.002 130.611C225.909 130.611 239.613 116.907 239.613 100H178.391Z" stroke="white" stroke-width="2" stroke-miterlimit="10" stroke-linecap="round" stroke-linejoin="round"/>
<path d="M178.391 88.5381L185.78 95.927" stroke="white" stroke-width="2" stroke-miterlimit="10" stroke-linecap="round" stroke-linejoin="round"/>
<path d="M201.66 70.2822C201.76 71.51 202.291 72.6629 203.159 73.5376C204.148 74.5273 204.704 75.8695 204.704 77.2689C204.704 78.6684 204.148 80.0106 203.159 81.0003C202.169 81.9901 201.613 83.3322 201.613 84.7317C201.613 86.1312 202.169 87.4734 203.159 88.4631C202.169 87.4734 201.613 86.1312 201.613 84.7317C201.613 83.3322 202.169 81.9901 203.159 81.0003C204.148 80.0106 204.704 78.6684 204.704 77.2689C204.704 75.8695 204.148 74.5273 203.159 73.5376C202.291 72.6629 201.76 71.51 201.66 70.2822" stroke="white" stroke-width="2" stroke-miterlimit="10" stroke-linecap="round" stroke-linejoin="round"/>
<path d="M207.493 69.4268C207.387 70.9024 207.875 72.4098 209.002 73.5371C209.992 74.5268 210.548 75.869 210.548 77.2685C210.548 78.668 209.992 80.0101 209.002 80.9999C208.013 81.9896 207.457 83.3318 207.457 84.7313C207.457 86.1307 208.013 87.4729 209.002 88.4626C208.013 87.4729 207.457 86.1307 207.457 84.7313C207.457 83.3318 208.013 81.9896 209.002 80.9999C209.992 80.0101 210.548 78.668 210.548 77.2685C210.548 75.869 209.992 74.5268 209.002 73.5371C207.875 72.4098 207.387 70.9024 207.493 69.4268Z" stroke="white" stroke-width="2" stroke-miterlimit="10" stroke-linecap="round" stroke-linejoin="round"/>
<path d="M213.233 69.6875C213.214 70.3998 213.34 71.1085 213.604 71.7703C213.868 72.4322 214.264 73.0333 214.768 73.5371C215.757 74.5268 216.313 75.869 216.313 77.2685C216.313 78.668 215.757 80.0102 214.768 80.9999C213.778 81.9896 213.223 83.3318 213.223 84.7313C213.223 86.1308 213.778 87.4729 214.768 88.4627C213.778 87.4729 213.223 86.1308 213.223 84.7313C213.223 83.3318 213.778 81.9896 214.768 80.9999C215.757 80.0102 216.313 78.668 216.313 77.2685C216.313 75.869 215.757 74.5268 214.768 73.5371C214.264 73.0332 213.868 72.4321 213.605 71.7702C213.341 71.1083 213.215 70.3997 213.234 69.6875" stroke="white" stroke-width="2" stroke-miterlimit="10" stroke-linecap="round" stroke-linejoin="round"/>
</svg>
