<svg width="340" height="33" viewBox="0 0 340 33" fill="none" xmlns="http://www.w3.org/2000/svg">
<path d="M16.3203 28.2568C19.0083 28.2568 20.605 26.1548 20.605 22.5952C20.605 21.2549 20.3486 20.127 19.8579 19.2554C19.1475 17.9004 17.9243 17.168 16.3789 17.168C14.0791 17.168 12.4531 18.7134 12.4531 20.8813C12.4531 22.9175 13.918 24.397 15.9321 24.397C17.1699 24.397 18.1733 23.8184 18.6714 22.8149H18.6934C18.6934 22.8149 18.7227 22.8149 18.73 22.8149C18.7446 22.8149 18.7959 22.8149 18.7959 22.8149C18.7959 25.2319 17.8804 26.6748 16.335 26.6748C15.4268 26.6748 14.7236 26.1768 14.4819 25.3784H12.5996C12.9146 27.1143 14.3867 28.2568 16.3203 28.2568ZM16.3862 22.8955C15.1704 22.8955 14.3062 22.0312 14.3062 20.8228C14.3062 19.6436 15.2144 18.7427 16.3936 18.7427C17.5728 18.7427 18.481 19.6582 18.481 20.8521C18.481 22.0312 17.5947 22.8955 16.3862 22.8955Z" fill="white"/>
<path d="M23.6961 28.1543C24.3919 28.1543 24.868 27.6562 24.868 26.9971C24.868 26.3306 24.3919 25.8398 23.6961 25.8398C23.0076 25.8398 22.5242 26.3306 22.5242 26.9971C22.5242 27.6562 23.0076 28.1543 23.6961 28.1543ZM23.6961 22.6611C24.3919 22.6611 24.868 22.1704 24.868 21.5112C24.868 20.8447 24.3919 20.354 23.6961 20.354C23.0076 20.354 22.5242 20.8447 22.5242 21.5112C22.5242 22.1704 23.0076 22.6611 23.6961 22.6611Z" fill="white"/>
<path d="M31.7237 28.0005H33.5328V26.0303H34.961V24.4336H33.5328V17.4316H30.8668C28.9991 20.2441 27.5123 22.5952 26.5602 24.3457V26.0303H31.7237V28.0005ZM28.3106 24.3677C29.5411 22.1997 30.6397 20.4639 31.6505 18.9697H31.753V24.4775H28.3106V24.3677Z" fill="white"/>
<path d="M38.9896 28.0005H40.8793V17.4316H38.997L36.2357 19.3652V21.1816L38.8651 19.3359H38.9896V28.0005Z" fill="white"/>
<path d="M57 0H276V0C273.894 0.602689 272.418 2.49525 272.345 4.68446L272.317 5.5618V5.5618C272.317 19.0587 261.375 30 247.878 30H85.1217C71.6249 30 60.6835 19.0587 60.6835 5.5618V5.5618L60.6545 4.68447C60.5823 2.49525 59.1059 0.602689 57 0V0Z" fill="black"/>
<path opacity="0.35" d="M317.667 17.833H334.333C335.53 17.833 336.5 18.8031 336.5 19.9997V25.9997C336.5 27.1963 335.53 28.1663 334.333 28.1663H317.667C316.47 28.1663 315.5 27.1963 315.5 25.9997V19.9997C315.5 18.8031 316.47 17.833 317.667 17.833Z" fill="white" stroke="#FFFBFF"/>
<path opacity="0.4" d="M338 21V25C338.805 24.6612 339.328 23.8731 339.328 23C339.328 22.1269 338.805 21.3388 338 21" fill="white"/>
<path d="M317 20.6663C317 19.93 317.597 19.333 318.333 19.333H333.667C334.403 19.333 335 19.93 335 20.6663V25.333C335 26.0694 334.403 26.6663 333.667 26.6663H318.333C317.597 26.6663 317 26.0694 317 25.333V20.6663Z" fill="white"/>
<path fill-rule="evenodd" clip-rule="evenodd" d="M302.33 19.6074C304.546 19.6075 306.677 20.4589 308.283 21.9857C308.404 22.1036 308.597 22.1021 308.716 21.9824L309.872 20.8157C309.933 20.755 309.966 20.6728 309.966 20.5872C309.965 20.5016 309.931 20.4198 309.87 20.3597C305.655 16.3202 299.005 16.3202 294.79 20.3597C294.729 20.4197 294.694 20.5015 294.693 20.5871C294.693 20.6727 294.726 20.755 294.787 20.8157L295.943 21.9824C296.062 22.1023 296.255 22.1038 296.376 21.9857C297.982 20.4588 300.114 19.6074 302.33 19.6074ZM302.331 23.403C303.548 23.4029 304.722 23.8554 305.625 24.6726C305.747 24.7886 305.939 24.7861 306.058 24.667L307.213 23.5003C307.274 23.4391 307.307 23.3561 307.306 23.2698C307.306 23.1836 307.27 23.1013 307.208 23.0413C304.46 20.4849 300.204 20.4849 297.456 23.0413C297.394 23.1013 297.358 23.1836 297.357 23.2699C297.357 23.3562 297.39 23.4392 297.451 23.5003L298.606 24.667C298.725 24.7861 298.917 24.7886 299.039 24.6726C299.941 23.856 301.114 23.4035 302.331 23.403ZM304.644 25.9565C304.646 26.0431 304.612 26.1265 304.55 26.1871L302.552 28.2027C302.494 28.262 302.414 28.2953 302.331 28.2953C302.248 28.2953 302.168 28.262 302.109 28.2027L300.111 26.1871C300.05 26.1264 300.016 26.043 300.018 25.9565C300.019 25.87 300.057 25.788 300.121 25.7301C301.397 24.6512 303.265 24.6512 304.54 25.7301C304.605 25.7881 304.642 25.87 304.644 25.9565Z" fill="white"/>
<path fill-rule="evenodd" clip-rule="evenodd" d="M288.666 17.666H287.666C287.114 17.666 286.666 18.1137 286.666 18.666V27.3327C286.666 27.885 287.114 28.3327 287.666 28.3327H288.666C289.218 28.3327 289.666 27.885 289.666 27.3327V18.666C289.666 18.1137 289.218 17.666 288.666 17.666ZM283 19.999H284C284.552 19.999 285 20.4467 285 20.999V27.3324C285 27.8846 284.552 28.3324 284 28.3324H283C282.448 28.3324 282 27.8846 282 27.3324V20.999C282 20.4467 282.448 19.999 283 19.999ZM279.332 22.333H278.332C277.78 22.333 277.332 22.7807 277.332 23.333V27.333C277.332 27.8853 277.78 28.333 278.332 28.333H279.332C279.884 28.333 280.332 27.8853 280.332 27.333V23.333C280.332 22.7807 279.884 22.333 279.332 22.333ZM274.666 24.333H273.666C273.114 24.333 272.666 24.7807 272.666 25.333V27.333C272.666 27.8853 273.114 28.333 273.666 28.333H274.666C275.218 28.333 275.666 27.8853 275.666 27.333V25.333C275.666 24.7807 275.218 24.333 274.666 24.333Z" fill="white"/>
</svg>

