<svg width="83" height="83" viewBox="0 0 83 83" fill="none" xmlns="http://www.w3.org/2000/svg">
<rect width="83" height="83" rx="8" fill="#FF5B5B" fill-opacity="0.4"/>
<path d="M66.7852 24.1306C66.2578 24.1306 65.5283 24.3491 64.5967 24.7863C63.665 25.2234 62.0742 26.0539 59.8242 27.2779L57.9785 29.2712C58.5762 29.6559 58.875 30.0755 58.875 30.5301C58.875 31.859 58.708 33.0305 58.374 34.0446C58.04 35.0588 57.5566 36.1691 56.9238 37.3756C56.291 38.582 55.8164 39.6574 55.5 40.6016C54.375 44.0286 53.1006 46.3804 51.6768 47.6568C50.2529 48.9332 48.1523 49.5714 45.375 49.5714C42.5625 49.5714 40.1719 48.5923 38.2031 46.6339C36.2344 44.6756 35.25 42.2976 35.25 39.5C35.25 36.7374 35.8916 34.6479 37.1748 33.2316C38.458 31.8153 40.8223 30.5476 44.2676 29.4286C45.1816 29.1138 46.2451 28.6505 47.458 28.0385C48.6709 27.4265 49.7959 26.9457 50.833 26.596C51.8701 26.2463 53.0566 26.0714 54.3926 26.0714L56.3965 23.8683C57.7324 20.8259 58.4004 18.9375 58.4004 18.2031C58.4004 17.6086 58.585 17.0928 58.9541 16.6557C59.3232 16.2186 59.7803 16 60.3252 16C60.8701 16 61.3271 16.2186 61.6963 16.6557C62.0654 17.0928 62.25 17.6086 62.25 18.2031C62.25 18.4479 61.9863 18.92 61.459 19.6194C61.7754 20.3538 62.0391 20.8259 62.25 21.0357C62.5664 21.3504 63.3398 21.3504 64.5703 21.0357C65.7305 19.9167 66.4512 19.3571 66.7324 19.3571C67.3652 19.3571 67.9014 19.5932 68.3408 20.0653C68.7803 20.5374 69 21.1057 69 21.7701C69 22.4345 68.7803 22.994 68.3408 23.4487C67.9014 23.9033 67.3828 24.1306 66.7852 24.1306ZM31.875 39.9721C31.875 43.5391 33.1494 46.5902 35.6982 49.1256C38.2471 51.6609 41.3145 52.9286 44.9004 52.9286C48.4512 52.9286 51.1406 52.1068 52.9688 50.4632C54.7969 48.8196 56.4492 45.8121 57.9258 41.4408C58.3125 40.1819 59.0332 38.5208 60.0879 36.4576C62.8652 38.9055 65.0449 41.5545 66.627 44.4046C68.209 47.2547 69 50.096 69 52.9286C69 55.0967 67.7695 56.9501 65.3086 58.4888C62.8477 60.0275 59.6221 61.1641 55.6318 61.8984C51.6416 62.6328 47.0977 63 42 63C38.8008 63 35.9443 62.8951 33.4307 62.6853C30.917 62.4754 28.4736 62.0733 26.1006 61.4788C23.7275 60.8843 21.7588 60.0975 20.1943 59.1183C18.6299 58.1391 17.373 56.8452 16.4238 55.2366C15.4746 53.628 15 51.7396 15 49.5714C15 47.0186 15.4834 44.5007 16.4502 42.0179C17.417 39.535 18.665 37.3581 20.1943 35.4872C21.7236 33.6163 23.3936 31.9552 25.2041 30.5039C27.0146 29.0526 28.7988 27.9511 30.5566 27.1992C32.3145 26.4474 33.8789 26.0714 35.25 26.0714C37.5 26.0714 39.9609 26.4036 42.6328 27.0681C39.0117 28.5368 36.3135 30.2853 34.5381 32.3136C32.7627 34.3419 31.875 36.8947 31.875 39.9721Z" fill="#F97979"/>
</svg>
