<svg width="83" height="83" viewBox="0 0 83 83" fill="none" xmlns="http://www.w3.org/2000/svg">
<rect width="83" height="83" rx="8" fill="#424242" fill-opacity="0.4"/>
<path d="M52.3704 70.1094C33.3649 76.6304 36.5996 64.8671 20.4903 56.3006C4.42428 47.7564 12.8653 30.8515 31.5691 20.059C54.1969 7.00264 76.3141 9.2665 71.2782 30.8515C66.2422 52.4353 68.3105 64.1639 52.3704 70.1094V70.1094Z" fill="#707070"/>
<path d="M42.0019 51.6005C48.2981 51.6005 53.4022 46.4964 53.4022 40.2001C53.4022 33.9039 48.2981 28.7998 42.0019 28.7998C35.7057 28.7998 30.6016 33.9039 30.6016 40.2001C30.6016 46.4964 35.7057 51.6005 42.0019 51.6005Z" fill="#949494"/>
<path d="M43.7969 33.2274C46.0511 33.8761 47.823 35.6065 48.612 37.8008M59.3973 16.2188C63.0802 16.2188 67.6818 19.9701 68.4438 25.2004L59.3973 16.2188Z" stroke="#CECECE" stroke-width="4" stroke-miterlimit="10" stroke-linecap="round" stroke-linejoin="round"/>
</svg>
