<svg width="83" height="83" viewBox="0 0 83 83" fill="none" xmlns="http://www.w3.org/2000/svg">
<rect width="83" height="83" rx="8" fill="#424242" fill-opacity="0.4"/>
<path fill-rule="evenodd" clip-rule="evenodd" d="M39.8667 31.7C39.8667 27.8013 41.4154 24.0623 44.1722 21.3055C46.929 18.5487 50.668 17 54.5667 17H66V28.4333C66 32.332 64.4513 36.071 61.6945 38.8278C58.9377 41.5846 55.1987 43.1333 51.3 43.1333H43.1333V66H39.8667V52.9333H31.7C27.8013 52.9333 24.0623 51.3846 21.3055 48.6278C18.5487 45.871 17 42.132 17 38.2333V26.8H28.4333C33.0524 26.8 37.1717 28.9299 39.8667 32.2586V31.7ZM43.6103 37.0769L53.4103 27.2769L55.7231 29.5897L45.9231 39.3897L43.6103 37.0769ZM37.0769 49.1897L27.2769 39.3897L29.5897 37.0769L39.3897 46.8769L37.0769 49.1897Z" fill="#707070"/>
</svg>
