<svg width="36" height="36" viewBox="0 0 36 36" fill="none" xmlns="http://www.w3.org/2000/svg">
<path d="M27.261 2.37072C27.261 3.67461 26.1941 4.74144 24.8903 4.74144C23.5864 4.74144 22.5195 3.67461 22.5195 2.37072C22.5195 1.06682 23.5864 0 24.8903 0C26.1941 0 27.261 1.06682 27.261 2.37072Z" fill="#EEEFEF"/>
<path d="M2.37072 18.967C3.68003 18.967 4.74144 17.9056 4.74144 16.5963C4.74144 15.287 3.68003 14.2256 2.37072 14.2256C1.06141 14.2256 0 15.287 0 16.5963C0 17.9056 1.06141 18.967 2.37072 18.967Z" fill="#E1E0E1"/>
<path d="M8.88597 4.74181C8.88597 6.04571 7.81915 7.11253 6.51525 7.11253C5.21135 7.11253 4.14453 6.04571 4.14453 4.74181C4.14453 3.43792 5.21135 2.37109 6.51525 2.37109C7.81915 2.37109 8.88597 3.43792 8.88597 4.74181Z" fill="#DFDFDF"/>
<path d="M35.5578 13.0397C35.5578 14.3436 34.491 15.4104 33.1871 15.4104C31.8832 15.4104 30.8164 14.3436 30.8164 13.0397C30.8164 11.7358 31.8832 10.6689 33.1871 10.6689C34.491 10.6689 35.5578 11.7358 35.5578 13.0397Z" fill="#D5D5D5"/>
<path d="M30.816 32.5979C32.1253 32.5979 33.1868 31.5365 33.1868 30.2272C33.1868 28.9179 32.1253 27.8564 30.816 27.8564C29.5067 27.8564 28.4453 28.9179 28.4453 30.2272C28.4453 31.5365 29.5067 32.5979 30.816 32.5979Z" fill="#FCFCFC"/>
<path d="M32.5947 32.0645L31.8242 33.6055L33.3059 34.4945C33.3059 34.4945 33.7801 33.072 33.8986 32.5979C34.0764 31.7681 33.0688 31.2347 32.5947 32.0645Z" fill="#E6B796"/>
<path d="M9.47942 32.184C10.7833 32.184 11.2575 31.2357 11.5538 30.6431C12.2057 29.1021 13.9838 24.4199 13.9838 24.4199H12.3836C11.4945 24.4199 10.9611 24.8348 10.7833 25.2497L9.12381 29.6355H7.16797L7.87918 31.1765C8.11626 31.5321 8.5904 32.184 9.47942 32.184" fill="#F1F1F1"/>
<path d="M28.6205 35.3252C27.3166 35.3252 27.1388 34.8511 26.7832 33.725L23.5234 24.4199H25.1237C26.0127 24.4199 26.5461 24.8348 26.7239 25.2497L28.9761 32.7174H30.9319L30.2207 34.3177C29.9836 34.6733 29.5095 35.3252 28.6205 35.3252Z" fill="#F1F1F1"/>
<path d="M6.63328 27.0264L7.40377 28.5674L5.92207 29.4564C5.92207 29.4564 5.44792 28.0339 5.32939 27.5598C5.15158 26.6708 6.15914 26.1966 6.63328 27.0264Z" fill="#E6B796"/>
<path d="M5.74411 29.3387V27.7977C5.92192 26.6716 11.3153 26.6716 11.1375 27.7977V29.3387C11.019 30.4648 5.62558 30.4648 5.74411 29.3387" fill="#FFE1BD"/>
<path d="M33.4836 34.3748V32.8338C33.3058 31.7077 27.9124 31.7077 28.0902 32.8338V34.3748C28.2088 35.5009 33.6022 35.5009 33.4836 34.3748Z" fill="#FFE1BD"/>
<path d="M20.1479 23.4704V22.4629H17.3623V23.4704C17.3623 24.0631 16.9475 24.478 16.4141 24.478H21.0962C20.5628 24.478 20.1479 24.0631 20.1479 23.4704Z" fill="#FFE1BD"/>
<path d="M15.1094 24.4189H22.3993V28.627H15.1094V24.4189Z" fill="#FFE1BD"/>
<path d="M25.0062 24.4189H21.5094C21.2131 25.7228 20.087 26.7304 18.7238 26.7304C17.3606 26.7304 16.2346 25.7228 15.9382 24.4189H12.4414V35.5613H24.9469L25.0062 24.4189Z" fill="white"/>
<path d="M10.7227 14.4034L11.5524 15.9443H26.0138L26.6657 14.3441C26.6657 8.53584 25.3026 6.04658 18.9016 5.98732C12.3229 5.92805 10.7227 8.53584 10.7227 14.4034" fill="#4B0000"/>
<path d="M26.0166 14.3441C25.9574 14.6997 25.8981 14.996 25.7796 15.1738C25.6018 15.4701 25.2461 15.648 25.2461 15.648C25.2461 15.648 25.3647 14.996 25.3054 14.107C24.9498 8.77287 24.6535 11.3214 18.7267 11.3214C12.7999 11.3214 12.5035 8.77287 12.1479 14.107C12.0887 14.996 12.2072 15.648 12.2072 15.648C12.2072 15.648 11.8516 15.4701 11.6738 15.1738C11.5552 14.996 11.496 14.6997 11.4367 14.3441C10.9033 14.2255 10.1328 14.3441 10.1328 15.9443C10.1328 16.9518 10.4884 17.7816 11.733 17.8409C12.1479 21.1599 16.6523 23.4121 18.6674 23.4121C20.6825 23.4121 25.1276 21.1599 25.6018 17.8409C26.8464 17.7816 27.202 16.9518 27.202 15.9443C27.2613 14.2848 26.55 14.1663 26.0166 14.3441" fill="#FFE1BD"/>
<path d="M15.7681 16.1201C16.4555 16.1201 17.0127 15.5629 17.0127 14.8755C17.0127 14.1881 16.4555 13.6309 15.7681 13.6309C15.0807 13.6309 14.5234 14.1881 14.5234 14.8755C14.5234 15.5629 15.0807 16.1201 15.7681 16.1201Z" fill="#440202"/>
<path d="M21.8149 16.1201C22.5023 16.1201 23.0596 15.5629 23.0596 14.8755C23.0596 14.1881 22.5023 13.6309 21.8149 13.6309C21.1276 13.6309 20.5703 14.1881 20.5703 14.8755C20.5703 15.5629 21.1276 16.1201 21.8149 16.1201Z" fill="#440202"/>
<path d="M21.1633 19.3797C21.1633 20.2687 19.978 20.7428 18.7926 20.7428C17.6072 20.7428 16.4219 20.2687 16.4219 19.3797C16.4219 19.3797 16.4219 19.1426 16.6589 19.1426H20.9262C21.1633 19.1426 21.1633 19.3797 21.1633 19.3797Z" fill="#440202"/>
</svg>
