<svg width="44" height="44" viewBox="0 0 44 44" fill="none" xmlns="http://www.w3.org/2000/svg">
<path d="M33 4.125C33 5.6375 31.7625 6.875 30.25 6.875C28.7375 6.875 27.5 5.6375 27.5 4.125C27.5 2.6125 28.7375 1.375 30.25 1.375C31.7625 1.375 33 2.6125 33 4.125Z" fill="#EEEFEF"/>
<path d="M4.125 23.375C5.64378 23.375 6.875 22.1438 6.875 20.625C6.875 19.1062 5.64378 17.875 4.125 17.875C2.60622 17.875 1.375 19.1062 1.375 20.625C1.375 22.1438 2.60622 23.375 4.125 23.375Z" fill="#E1E0E1"/>
<path d="M11.6875 6.875C11.6875 8.3875 10.45 9.625 8.9375 9.625C7.425 9.625 6.1875 8.3875 6.1875 6.875C6.1875 5.3625 7.425 4.125 8.9375 4.125C10.45 4.125 11.6875 5.3625 11.6875 6.875Z" fill="#DFDFDF"/>
<path d="M42.625 16.5C42.625 18.0125 41.3875 19.25 39.875 19.25C38.3625 19.25 37.125 18.0125 37.125 16.5C37.125 14.9875 38.3625 13.75 39.875 13.75C41.3875 13.75 42.625 14.9875 42.625 16.5Z" fill="#D5D5D5"/>
<path d="M37.125 39.1875C38.6438 39.1875 39.875 37.9563 39.875 36.4375C39.875 34.9187 38.6438 33.6875 37.125 33.6875C35.6062 33.6875 34.375 34.9187 34.375 36.4375C34.375 37.9563 35.6062 39.1875 37.125 39.1875Z" fill="#FCFCFC"/>
<path d="M39.1867 38.5685L38.293 40.356L40.0117 41.3873C40.0117 41.3873 40.5617 39.7373 40.6992 39.1873C40.9055 38.2248 39.7367 37.606 39.1867 38.5685Z" fill="#E6B796"/>
<path d="M12.3766 38.7064C13.8891 38.7064 14.4391 37.6064 14.7828 36.9189C15.5391 35.1314 17.6016 29.7002 17.6016 29.7002H15.7453C14.7141 29.7002 14.0953 30.1814 13.8891 30.6627L11.9641 35.7502H9.69531L10.5203 37.5377C10.7953 37.9502 11.3453 38.7064 12.3766 38.7064Z" fill="#F1F1F1"/>
<path d="M34.5844 42.3502C33.0719 42.3502 32.8656 41.8002 32.4531 40.4939L28.6719 29.7002H30.5281C31.5594 29.7002 32.1781 30.1814 32.3844 30.6627L34.9969 39.3252H37.2656L36.4406 41.1814C36.1656 41.5939 35.6156 42.3502 34.5844 42.3502Z" fill="#F1F1F1"/>
<path d="M9.07568 32.7252L9.96943 34.5127L8.25068 35.5439C8.25068 35.5439 7.70068 33.8939 7.56318 33.3439C7.35693 32.3127 8.52568 31.7627 9.07568 32.7252Z" fill="#E6B796"/>
<path d="M8.0452 35.4068V33.6193C8.25145 32.3131 14.5077 32.3131 14.3015 33.6193V35.4068C14.164 36.7131 7.9077 36.7131 8.0452 35.4068Z" fill="#FFE1BD"/>
<path d="M40.2183 41.2506V39.4631C40.012 38.1568 33.7558 38.1568 33.962 39.4631V41.2506C34.0995 42.5568 40.3558 42.5568 40.2183 41.2506Z" fill="#FFE1BD"/>
<path d="M24.7531 28.6004V27.4316H21.5219V28.6004C21.5219 29.2879 21.0406 29.7691 20.4219 29.7691H25.8531C25.2344 29.7691 24.7531 29.2879 24.7531 28.6004Z" fill="#FFE1BD"/>
<path d="M18.9062 29.7002H27.3625V34.5814H18.9062V29.7002Z" fill="#FFE1BD"/>
<path d="M30.3875 29.7002H26.3312C25.9875 31.2127 24.6812 32.3814 23.1 32.3814C21.5187 32.3814 20.2125 31.2127 19.8687 29.7002H15.8125V42.6252H30.3187L30.3875 29.7002Z" fill="white"/>
<path d="M13.8203 18.081L14.7828 19.8685H31.5578L32.3141 18.0123C32.3141 11.2748 30.7328 8.38728 23.3078 8.31853C15.6766 8.24978 13.8203 11.2748 13.8203 18.081Z" fill="#0A0200"/>
<path d="M31.5578 18.0129C31.4891 18.4254 31.4203 18.7691 31.2828 18.9754C31.0766 19.3191 30.6641 19.5254 30.6641 19.5254C30.6641 19.5254 30.8016 18.7691 30.7328 17.7379C30.3203 11.5504 29.9766 14.5066 23.1016 14.5066C16.2266 14.5066 15.8828 11.5504 15.4703 17.7379C15.4016 18.7691 15.5391 19.5254 15.5391 19.5254C15.5391 19.5254 15.1266 19.3191 14.9203 18.9754C14.7828 18.7691 14.7141 18.4254 14.6453 18.0129C14.0266 17.8754 13.1328 18.0129 13.1328 19.8691C13.1328 21.0379 13.5453 22.0004 14.9891 22.0691C15.4703 25.9191 20.6953 28.5316 23.0328 28.5316C25.3703 28.5316 30.5266 25.9191 31.0766 22.0691C32.5203 22.0004 32.9328 21.0379 32.9328 19.8691C33.0016 17.9441 32.1766 17.8066 31.5578 18.0129Z" fill="#FFE1BD"/>
<path d="M19.6625 20.075C20.4599 20.075 21.1062 19.4286 21.1062 18.6312C21.1062 17.8339 20.4599 17.1875 19.6625 17.1875C18.8651 17.1875 18.2188 17.8339 18.2188 18.6312C18.2188 19.4286 18.8651 20.075 19.6625 20.075Z" fill="#440202"/>
<path d="M26.6742 20.075C27.4716 20.075 28.118 19.4286 28.118 18.6312C28.118 17.8339 27.4716 17.1875 26.6742 17.1875C25.8769 17.1875 25.2305 17.8339 25.2305 18.6312C25.2305 19.4286 25.8769 20.075 26.6742 20.075Z" fill="#440202"/>
<path d="M25.918 23.8561C25.918 24.8873 24.543 25.4373 23.168 25.4373C21.793 25.4373 20.418 24.8873 20.418 23.8561C20.418 23.8561 20.418 23.5811 20.693 23.5811H25.643C25.918 23.5811 25.918 23.8561 25.918 23.8561Z" fill="#440202"/>
</svg>
