<svg width="44" height="44" viewBox="0 0 44 44" fill="none" xmlns="http://www.w3.org/2000/svg">
<path d="M6.08804 11.51C5.05695 12.5414 4.47771 13.9401 4.47771 15.3985C4.47771 16.8569 5.05695 18.2556 6.08804 19.287L13.7088 26.91C13.9486 27.1476 14.2038 27.361 14.47 27.5458C14.5624 27.273 14.69 27.0112 14.8528 26.767C15.7218 25.4624 16.8328 24.523 18.1176 23.9884C18.6918 23.7486 19.2594 23.6078 19.7984 23.5374V16.4974C19.7986 15.959 19.9304 15.4288 20.1825 14.9531C20.4346 14.4773 20.7992 14.0705 21.2447 13.768C21.6901 13.4656 22.2028 13.2767 22.7379 13.2179C23.2731 13.1591 23.8146 13.2321 24.315 13.4306C24.4658 12.8767 24.7585 12.3716 25.1642 11.9654L19.288 6.08701C18.7773 5.57614 18.1709 5.17088 17.5035 4.89439C16.8361 4.6179 16.1208 4.47559 15.3984 4.47559C14.676 4.47559 13.9607 4.6179 13.2933 4.89439C12.626 5.17088 12.0196 5.57614 11.5088 6.08701L6.08804 11.51ZM27.4984 13.1996C27.2067 13.1996 26.9269 13.3155 26.7206 13.5218C26.5143 13.7281 26.3984 14.0079 26.3984 14.2996V25.2996C26.3984 25.5913 26.2825 25.8711 26.0763 26.0774C25.87 26.2837 25.5902 26.3996 25.2984 26.3996C25.0067 26.3996 24.7269 26.2837 24.5206 26.0774C24.3143 25.8711 24.1984 25.5913 24.1984 25.2996V16.4996C24.1984 16.2079 24.0825 15.9281 23.8763 15.7218C23.67 15.5155 23.3902 15.3996 23.0984 15.3996C22.8067 15.3996 22.5269 15.5155 22.3206 15.7218C22.1143 15.9281 21.9984 16.2079 21.9984 16.4996V25.8496C21.7719 25.791 21.5419 25.7469 21.3098 25.7176C20.5145 25.6106 19.705 25.7145 18.9624 26.019C18.122 26.371 17.341 27.0024 16.6832 27.988C16.5937 28.1223 16.5347 28.2747 16.5107 28.4343C16.4866 28.594 16.498 28.7569 16.5439 28.9117C16.5899 29.0664 16.6694 29.2092 16.7767 29.3298C16.8841 29.4503 17.0167 29.5458 17.165 29.6094C20.4716 31.0262 22.203 33.0678 23.1226 34.8168C24.3194 37.0872 26.647 39.5996 29.6984 39.5996H30.2792C31.3009 39.5994 32.3022 39.3146 33.1711 38.7772C34.04 38.2398 34.742 37.471 35.1984 36.557L36.5844 33.785C37.12 32.7147 37.3987 31.5344 37.3984 30.3376V16.4996C37.3984 16.2079 37.2826 15.9281 37.0763 15.7218C36.87 15.5155 36.5902 15.3996 36.2984 15.3996C36.0067 15.3996 35.7269 15.5155 35.5206 15.7218C35.3143 15.9281 35.1984 16.2079 35.1984 16.4996V25.2996C35.1984 25.5913 35.0826 25.8711 34.8763 26.0774C34.67 26.2837 34.3902 26.3996 34.0984 26.3996C33.8067 26.3996 33.5269 26.2837 33.3206 26.0774C33.1143 25.8711 32.9984 25.5913 32.9984 25.2996V14.2996C32.9984 14.0079 32.8825 13.7281 32.6763 13.5218C32.47 13.3155 32.1902 13.1996 31.8984 13.1996C31.6067 13.1996 31.3269 13.3155 31.1206 13.5218C30.9143 13.7281 30.7984 14.0079 30.7984 14.2996V25.2996C30.7984 25.5913 30.6825 25.8711 30.4763 26.0774C30.27 26.2837 29.9902 26.3996 29.6984 26.3996C29.4067 26.3996 29.1269 26.2837 28.9206 26.0774C28.7143 25.8711 28.5984 25.5913 28.5984 25.2996V14.2996C28.5984 14.0079 28.4825 13.7281 28.2763 13.5218C28.07 13.3155 27.7902 13.1996 27.4984 13.1996ZM7.69844 26.3996C7.99018 26.3996 8.26997 26.5155 8.47626 26.7218C8.68255 26.9281 8.79844 27.2079 8.79844 27.4996V28.5996H9.89844C10.1902 28.5996 10.47 28.7155 10.6763 28.9218C10.8825 29.1281 10.9984 29.4079 10.9984 29.6996C10.9984 29.9913 10.8825 30.2711 10.6763 30.4774C10.47 30.6837 10.1902 30.7996 9.89844 30.7996H8.79844V31.8996C8.79844 32.1913 8.68255 32.4711 8.47626 32.6774C8.26997 32.8837 7.99018 32.9996 7.69844 32.9996C7.4067 32.9996 7.12691 32.8837 6.92062 32.6774C6.71433 32.4711 6.59844 32.1913 6.59844 31.8996V30.7996H5.49844C5.2067 30.7996 4.92691 30.6837 4.72062 30.4774C4.51433 30.2711 4.39844 29.9913 4.39844 29.6996C4.39844 29.4079 4.51433 29.1281 4.72062 28.9218C4.92691 28.7155 5.2067 28.5996 5.49844 28.5996H6.59844V27.4996C6.59844 27.2079 6.71433 26.9281 6.92062 26.7218C7.12691 26.5155 7.4067 26.3996 7.69844 26.3996ZM14.2984 32.9996C14.5902 32.9996 14.87 33.1155 15.0763 33.3218C15.2825 33.5281 15.3984 33.8079 15.3984 34.0996V35.1996H16.4984C16.7902 35.1996 17.07 35.3155 17.2763 35.5218C17.4825 35.7281 17.5984 36.0079 17.5984 36.2996C17.5984 36.5913 17.4825 36.8711 17.2763 37.0774C17.07 37.2837 16.7902 37.3996 16.4984 37.3996H15.3984V38.4996C15.3984 38.7913 15.2825 39.0711 15.0763 39.2774C14.87 39.4837 14.5902 39.5996 14.2984 39.5996C14.0067 39.5996 13.7269 39.4837 13.5206 39.2774C13.3143 39.0711 13.1984 38.7913 13.1984 38.4996V37.3996H12.0984C11.8067 37.3996 11.5269 37.2837 11.3206 37.0774C11.1143 36.8711 10.9984 36.5913 10.9984 36.2996C10.9984 36.0079 11.1143 35.7281 11.3206 35.5218C11.5269 35.3155 11.8067 35.1996 12.0984 35.1996H13.1984V34.0996C13.1984 33.8079 13.3143 33.5281 13.5206 33.3218C13.7269 33.1155 14.0067 32.9996 14.2984 32.9996Z" fill="#FDFDFD"/>
</svg>
