<svg width="18" height="22" viewBox="0 0 18 22" fill="none" xmlns="http://www.w3.org/2000/svg">
<path d="M15.75 9.5C15.75 14.75 9 19.25 9 19.25C9 19.25 2.25 14.75 2.25 9.5C2.25 7.70979 2.96116 5.9929 4.22703 4.72703C5.4929 3.46116 7.20979 2.75 9 2.75C10.7902 2.75 12.5071 3.46116 13.773 4.72703C15.0388 5.9929 15.75 7.70979 15.75 9.5Z" stroke="#EFEFEF" stroke-width="2" stroke-linecap="round" stroke-linejoin="round"/>
<path d="M9 11.75C10.2426 11.75 11.25 10.7426 11.25 9.5C11.25 8.25736 10.2426 7.25 9 7.25C7.75736 7.25 6.75 8.25736 6.75 9.5C6.75 10.7426 7.75736 11.75 9 11.75Z" stroke="#EFEFEF" stroke-width="2" stroke-linecap="round" stroke-linejoin="round"/>
</svg>
