<svg width="44" height="44" viewBox="0 0 44 44" fill="none" xmlns="http://www.w3.org/2000/svg">
<path d="M21.9983 13.75C24.6521 13.75 26.8108 11.5912 26.8108 8.9375C26.8108 6.28375 24.6521 4.125 21.9983 4.125C19.3446 4.125 17.1858 6.28375 17.1858 8.9375C17.1858 11.5912 19.3446 13.75 21.9983 13.75ZM32.8388 10.6865C32.8388 10.6865 29.9967 8.04238 29.3738 10.6178C28.5626 13.9755 25.5981 16.5027 21.9983 16.5027C18.3986 16.5027 15.4341 13.9755 14.6228 10.6178C14.0013 8.04238 11.1578 10.6865 11.1578 10.6865C9.34469 12.2414 7.8897 14.1705 6.89282 16.341C5.89594 18.5116 5.38081 20.8723 5.38282 23.2609C5.38419 32.4362 12.8229 39.875 21.9983 39.875C31.1737 39.875 38.6124 32.4362 38.6124 23.2609C38.6124 18.2311 36.3712 13.7321 32.8374 10.6865H32.8388ZM20.5683 22.3768L21.6779 20.1286L22.7876 22.3754L25.2694 22.737L23.4723 24.4832L23.8986 26.9555L21.6779 25.7812L19.4587 26.9569L19.8849 24.486L18.0878 22.7397L20.5669 22.3768H20.5683ZM10.7756 30.129C9.50022 28.0652 8.82471 25.687 8.82471 23.2609C8.82471 20.8348 9.50022 18.4566 10.7756 16.3927C13.3991 17.578 15.2388 20.1946 15.2388 23.2609C15.2388 26.3271 13.3991 28.9438 10.7756 30.129ZM21.9983 36.4375C19.5721 36.4366 17.194 35.7605 15.1302 34.485C16.3154 31.8587 18.9321 30.0204 21.9983 30.0204C25.0646 30.0204 27.6812 31.8601 28.8664 34.4836C26.8026 35.7591 24.4245 36.4352 21.9983 36.4361V36.4375ZM33.2211 30.129C30.5976 28.9438 28.7578 26.3258 28.7578 23.2609C28.7578 20.1946 30.5976 17.578 33.2224 16.3927C34.4978 18.4566 35.1733 20.8348 35.1733 23.2609C35.1733 25.687 34.4978 28.0652 33.2224 30.129H33.2211Z" fill="#FDFDFD"/>
</svg>
