<svg width="30" height="32" viewBox="0 0 30 32" fill="none" xmlns="http://www.w3.org/2000/svg">
<path d="M12.5617 0.872842C13.2379 0.309801 14.0947 0.000601683 14.9802 8.77212e-07C15.8658 -0.000599928 16.723 0.307437 17.4 0.86956L28.6667 10.2217C29.5117 10.9225 30 11.9565 30 13.0447V29.1277C30 29.8895 29.6927 30.6201 29.1457 31.1587C28.5987 31.6974 27.8569 32 27.0833 32H2.91667C2.14341 32 1.40179 31.6976 0.854861 31.1593C0.307928 30.621 0.000441863 29.8909 0 29.1294V13.0447C0 11.9581 0.486667 10.9274 1.32833 10.2249L12.5617 0.872842ZM21.3067 16.0433C21.426 15.9297 21.5212 15.7938 21.5866 15.6436C21.652 15.4934 21.6864 15.3319 21.6878 15.1684C21.6892 15.005 21.6575 14.8429 21.5945 14.6917C21.5316 14.5404 21.4387 14.403 21.3213 14.2875C21.2039 14.172 21.0643 14.0806 20.9106 14.0188C20.757 13.957 20.5924 13.9259 20.4264 13.9274C20.2604 13.9289 20.0964 13.9629 19.9439 14.0275C19.7915 14.0921 19.6536 14.1859 19.5383 14.3036L12.9167 20.8228L10.4667 18.4101C10.3513 18.2926 10.2133 18.1988 10.0608 18.1344C9.90825 18.07 9.74422 18.0361 9.57824 18.0347C9.41227 18.0334 9.24768 18.0646 9.09409 18.1266C8.9405 18.1886 8.80098 18.28 8.68367 18.3957C8.56636 18.5113 8.47361 18.6488 8.41083 18.8001C8.34805 18.9514 8.3165 19.1135 8.31802 19.2769C8.31954 19.4404 8.3541 19.6019 8.41969 19.7521C8.48527 19.9022 8.58056 20.038 8.7 20.1515L12.0333 23.4341C12.2677 23.6646 12.5854 23.7941 12.9167 23.7941C13.2479 23.7941 13.5656 23.6646 13.8 23.4341L21.3067 16.0433Z" fill="#FDFDFD"/>
</svg>
