<svg width="43" height="43" viewBox="0 0 43 43" fill="none" xmlns="http://www.w3.org/2000/svg">
<path d="M0 34.0389V37.625C0 40.5896 7.22266 43 16.125 43C25.0273 43 32.25 40.5896 32.25 37.625V34.0389C28.7814 36.4828 22.4406 37.625 16.125 37.625C9.80937 37.625 3.46855 36.4828 0 34.0389ZM26.875 10.75C35.7773 10.75 43 8.33965 43 5.375C43 2.41035 35.7773 0 26.875 0C17.9727 0 10.75 2.41035 10.75 5.375C10.75 8.33965 17.9727 10.75 26.875 10.75ZM0 25.2289V29.5625C0 32.5271 7.22266 34.9375 16.125 34.9375C25.0273 34.9375 32.25 32.5271 32.25 29.5625V25.2289C28.7814 28.0844 22.4322 29.5625 16.125 29.5625C9.81777 29.5625 3.46855 28.0844 0 25.2289ZM34.9375 26.1527C39.7498 25.2205 43 23.4904 43 21.5V17.9139C41.0516 19.2912 38.1877 20.2318 34.9375 20.8113V26.1527ZM16.125 13.4375C7.22266 13.4375 0 16.4441 0 20.1562C0 23.8684 7.22266 26.875 16.125 26.875C25.0273 26.875 32.25 23.8684 32.25 20.1562C32.25 16.4441 25.0273 13.4375 16.125 13.4375ZM34.5428 18.1658C39.5818 17.2588 43 15.4783 43 13.4375V9.85137C40.0186 11.9594 34.8955 13.0932 29.5037 13.3619C31.9812 14.5629 33.8037 16.1754 34.5428 18.1658Z" fill="#E4E4E4"/>
</svg>
