<svg width="43" height="43" viewBox="0 0 43 43" fill="none" xmlns="http://www.w3.org/2000/svg">
<path d="M16.2682 12.8362C16.3886 12.5953 16.5786 12.3961 16.8135 12.2644C17.0485 12.1328 17.3176 12.0748 17.5859 12.098C17.8542 12.1212 18.1094 12.2244 18.3183 12.3944C18.5272 12.5644 18.6802 12.7932 18.7575 13.0512L21.8146 23.2435L24.3341 18.2112C24.4457 17.988 24.6173 17.8003 24.8295 17.6692C25.0418 17.538 25.2864 17.4685 25.5359 17.4685C25.7854 17.4685 26.03 17.538 26.2423 17.6692C26.4546 17.8003 26.6261 17.988 26.7377 18.2112L29.0507 22.8438H37.177C38.3869 20.3494 39.0007 17.608 38.97 14.8358C38.9171 9.61957 34.7322 5.375 29.6411 5.375C25.6023 5.375 22.9223 7.8559 21.5013 9.6582C20.0836 7.85338 17.4003 5.375 13.3615 5.375C8.27039 5.375 4.08545 9.61957 4.03254 14.8358C4.01082 16.6371 4.26372 18.4312 4.78252 20.1562H12.6082L16.2682 12.8362Z" fill="#E4E4E4"/>
<path d="M27.0168 24.7892L25.5312 21.8178L22.7017 27.4767C22.5901 27.6998 22.4185 27.8874 22.2062 28.0186C21.994 28.1497 21.7494 28.2191 21.4999 28.2191C21.4624 28.2191 21.4238 28.2174 21.384 28.2141C21.115 28.1917 20.859 28.089 20.6493 27.9191C20.4396 27.7492 20.2859 27.5201 20.2082 27.2617L17.1512 17.0693L14.6317 22.1017C14.5206 22.3237 14.3502 22.5105 14.1394 22.6416C13.9286 22.7726 13.6856 22.8427 13.4374 22.8441H5.82422C6.60807 24.484 7.65144 26.0982 8.95432 27.6866C10.5307 29.6082 13.3887 32.6804 19.989 37.1609C20.4341 37.466 20.9611 37.6292 21.5007 37.6292C22.0404 37.6292 22.5673 37.466 23.0125 37.1609C29.6128 32.6804 32.4708 29.6082 34.0472 27.6866C34.615 26.9956 35.1475 26.2763 35.6429 25.5316H28.2186C27.9692 25.5316 27.7246 25.4622 27.5123 25.3311C27.3 25.1999 27.1285 25.0123 27.0168 24.7892Z" fill="#E4E4E4"/>
<path d="M38.9703 22.8438H37.1772C36.7305 23.7747 36.2183 24.6728 35.6445 25.5312H38.9703C39.3267 25.5312 39.6685 25.3897 39.9205 25.1377C40.1725 24.8857 40.3141 24.5439 40.3141 24.1875C40.3141 23.8311 40.1725 23.4893 39.9205 23.2373C39.6685 22.9853 39.3267 22.8438 38.9703 22.8438Z" fill="#920909"/>
<path d="M4.03125 20.1562C3.67487 20.1562 3.33308 20.2978 3.08108 20.5498C2.82907 20.8018 2.6875 21.1436 2.6875 21.5C2.6875 21.8564 2.82907 22.1982 3.08108 22.4502C3.33308 22.7022 3.67487 22.8438 4.03125 22.8438H5.82432C5.40876 21.9758 5.06005 21.0773 4.78123 20.1562H4.03125Z" fill="#920909"/>
</svg>
