<svg width="43" height="35" viewBox="0 0 43 35" fill="none" xmlns="http://www.w3.org/2000/svg">
<path d="M21.5 9.84375C17.9377 9.84375 15.05 13.2713 15.05 17.5C15.05 21.728 17.9377 25.1562 21.5 25.1562C25.0609 25.1562 27.95 21.7294 27.95 17.5C27.95 13.2713 25.0623 9.84375 21.5 9.84375ZM24.1875 21.3281C24.1875 21.6303 23.947 21.875 23.65 21.875H19.35C19.053 21.875 18.8125 21.6303 18.8125 21.3281V20.2344C18.8125 19.9322 19.053 19.6875 19.35 19.6875H20.425V15.8977L20.3934 15.9188C20.3347 15.9587 20.2689 15.9864 20.1996 16.0004C20.1304 16.0143 20.0592 16.0142 19.9899 16.0001C19.9207 15.986 19.8549 15.9582 19.7963 15.9182C19.7377 15.8782 19.6874 15.8269 19.6483 15.7671L19.0517 14.8572C19.0125 14.7975 18.9853 14.7305 18.9716 14.6601C18.9579 14.5896 18.9579 14.5171 18.9718 14.4467C18.9857 14.3763 19.013 14.3094 19.0523 14.2497C19.0916 14.1901 19.1421 14.1389 19.2008 14.0991L20.2308 13.4005C20.4956 13.2208 20.8068 13.125 21.1251 13.125H22.0375C22.3345 13.125 22.575 13.3697 22.575 13.6719V19.6875H23.65C23.947 19.6875 24.1875 19.9322 24.1875 20.2344V21.3281ZM40.85 4.375H2.15C0.962797 4.375 0 5.35459 0 6.5625V28.4375C0 29.6454 0.962797 30.625 2.15 30.625H40.85C42.0372 30.625 43 29.6454 43 28.4375V6.5625C43 5.35459 42.0372 4.375 40.85 4.375ZM39.775 22.9688C37.3999 22.9688 35.475 24.9272 35.475 27.3438H7.525C7.525 24.9272 5.60008 22.9688 3.225 22.9688V12.0312C5.60008 12.0312 7.525 10.0728 7.525 7.65625H35.475C35.475 10.0728 37.3999 12.0312 39.775 12.0312V22.9688Z" fill="#FBFAFA"/>
</svg>
