<svg width="43" height="43" viewBox="0 0 43 43" fill="none" xmlns="http://www.w3.org/2000/svg">
<path fill-rule="evenodd" clip-rule="evenodd" d="M6.10783 11.524C5.91348 11.7184 5.80435 11.9821 5.80443 12.2571C5.80451 12.532 5.91381 12.7957 6.10828 12.99C6.30275 13.1844 6.56645 13.2935 6.84139 13.2934C7.11632 13.2933 7.37996 13.184 7.57431 12.9896L8.3071 12.2559L11.9711 15.9198L9.03989 18.8528C8.85107 19.0483 8.74658 19.3101 8.74893 19.5819C8.75128 19.8536 8.86029 20.1136 9.05247 20.3058C9.24465 20.498 9.50463 20.607 9.7764 20.6093C10.0482 20.6117 10.31 20.5072 10.5055 20.3184L11.9711 18.8528L14.6182 21.5H7.50175C6.93737 21.5 6.39719 21.7266 5.99764 22.1297C5.59814 22.5348 5.37443 23.081 5.37504 23.65V26.8732C5.36833 29.3728 6.20825 31.8009 7.75796 33.7621C9.29822 35.713 11.4611 37.0765 13.8855 37.625C16.3096 37.0771 18.4725 35.7142 20.013 33.7639C21.0984 32.3915 21.842 30.7807 22.1827 29.0644L24.4312 31.3138C25.1444 32.0273 26.0503 32.5172 27.0378 32.7234C28.0254 32.9296 29.0516 32.8432 29.9908 32.4748L31.0281 33.5131C31.2854 33.7706 31.6061 33.9558 31.9577 34.05C32.3094 34.1442 32.6796 34.1441 33.0312 34.0497L35.4258 36.4443C35.6202 36.6387 35.884 36.748 36.159 36.748C36.434 36.748 36.6978 36.6387 36.8923 36.4443C37.0867 36.2498 37.196 35.986 37.196 35.711C37.196 35.436 37.0867 35.1723 36.8923 34.9778L34.4968 32.5832C34.5909 32.2317 34.5908 31.8616 34.4964 31.5101C34.4021 31.1586 34.2168 30.8382 33.9593 30.581L32.9219 29.5428C33.2399 28.7317 33.3484 27.8537 33.2373 26.9896C33.0932 25.8517 32.574 24.7941 31.7618 23.9841L19.3008 11.5231L20.7672 10.0566C20.9616 9.86213 21.0707 9.59842 21.0707 9.32349C21.0706 9.04855 20.9613 8.78491 20.7668 8.59057C20.5723 8.39622 20.3086 8.28708 20.0337 8.28716C19.7588 8.28725 19.4951 8.39655 19.3008 8.59101L16.3696 11.5231L12.7056 7.85912L13.4375 7.12633C13.632 6.93198 13.7413 6.66834 13.7414 6.3934C13.7415 6.11847 13.6323 5.85476 13.438 5.66029C13.2436 5.46583 12.98 5.35653 12.7051 5.35645C12.4301 5.35636 12.1664 5.4655 11.972 5.65985L6.10783 11.524ZM23.7817 28.1291L28.5771 23.3337L18.0332 12.7898L13.2378 17.5861L17.1526 21.5H20.2692C20.8335 21.5 21.3737 21.7266 21.7724 22.1297C22.1719 22.5329 22.3959 23.0793 22.3959 23.65V26.7442L23.7817 28.1291ZM15.102 12.7898L11.438 9.12583L9.57471 10.9892L13.2387 14.6531L15.102 12.7898ZM31.9553 31.1096C31.8296 31.2492 31.6966 31.382 31.5567 31.5073L32.2948 32.2455C32.321 32.2717 32.352 32.2924 32.3861 32.3066C32.4203 32.3208 32.4569 32.3281 32.4938 32.3282C32.5308 32.3282 32.5674 32.321 32.6016 32.3069C32.6358 32.2928 32.6669 32.2721 32.693 32.2459C32.7192 32.2198 32.74 32.1888 32.7542 32.1547C32.7684 32.1205 32.7757 32.0839 32.7757 32.0469C32.7758 32.01 32.7685 31.9733 32.7544 31.9392C32.7403 31.905 32.7196 31.8739 32.6935 31.8477L31.9553 31.1096ZM30.0427 24.7993L30.4942 25.2508C30.8454 25.6005 31.1154 26.0232 31.2849 26.4889C31.4544 26.9546 31.5194 27.4519 31.4751 27.9455C31.447 28.2692 31.3724 28.5872 31.2539 28.8897L29.3368 30.8059C28.7223 31.0472 28.0508 31.1039 27.4046 30.9691C26.7584 30.8343 26.1656 30.5139 25.6988 30.0471L25.2473 29.5956L30.0427 24.7993ZM15.2292 25.9791C15.2292 25.7416 15.1348 25.5137 14.9668 25.3457C14.7988 25.1777 14.571 25.0833 14.3334 25.0833C14.0958 25.0833 13.8679 25.1777 13.6999 25.3457C13.5319 25.5137 13.4375 25.7416 13.4375 25.9791V27.7708H11.6459C11.4083 27.7708 11.1804 27.8652 11.0124 28.0332C10.8444 28.2012 10.75 28.4291 10.75 28.6666C10.75 28.9042 10.8444 29.1321 11.0124 29.3001C11.1804 29.4681 11.4083 29.5625 11.6459 29.5625H13.4375V31.3541C13.4375 31.5917 13.5319 31.8196 13.6999 31.9876C13.8679 32.1556 14.0958 32.25 14.3334 32.25C14.571 32.25 14.7988 32.1556 14.9668 31.9876C15.1348 31.8196 15.2292 31.5917 15.2292 31.3541V29.5625H17.0209C17.2585 29.5625 17.4863 29.4681 17.6543 29.3001C17.8223 29.1321 17.9167 28.9042 17.9167 28.6666C17.9167 28.4291 17.8223 28.2012 17.6543 28.0332C17.4863 27.8652 17.2585 27.7708 17.0209 27.7708H15.2292V25.9791Z" fill="#E4E4E4"/>
</svg>
