<svg width="32" height="32" viewBox="0 0 32 32" fill="none" xmlns="http://www.w3.org/2000/svg">
<path d="M20 20H30V22H20V20Z" fill="#FF002E"/>
<path d="M20 24H30V26H20V24Z" fill="#FF002E"/>
<path d="M20 28H30V30H20V28Z" fill="#FF002E"/>
<path d="M16 20C15.4714 20.012 14.9459 19.9168 14.4552 19.72C13.9644 19.5233 13.5186 19.2291 13.1448 18.8552C12.7709 18.4814 12.4767 18.0356 12.28 17.5449C12.0832 17.0541 11.988 16.5286 12 16C11.988 15.4714 12.0832 14.9459 12.28 14.4552C12.4767 13.9644 12.7709 13.5186 13.1448 13.1448C13.5186 12.7709 13.9644 12.4767 14.4552 12.28C14.9459 12.0832 15.4714 11.988 16 12C16.5286 11.988 17.0541 12.0832 17.5449 12.28C18.0356 12.4767 18.4814 12.7709 18.8552 13.1448C19.2291 13.5186 19.5233 13.9644 19.72 14.4552C19.9168 14.9459 20.012 15.4714 20 16H22C22 14.8133 21.6481 13.6533 20.9888 12.6666C20.3295 11.6799 19.3925 10.9109 18.2961 10.4567C17.1997 10.0026 15.9933 9.88378 14.8295 10.1153C13.6656 10.3468 12.5965 10.9182 11.7574 11.7574C10.9182 12.5965 10.3468 13.6656 10.1153 14.8295C9.88378 15.9933 10.0026 17.1997 10.4567 18.2961C10.9109 19.3925 11.6799 20.3295 12.6666 20.9888C13.6533 21.6481 14.8133 22 16 22V20Z" fill="#FF002E"/>
<path d="M29.3071 11.044L26.9471 6.956C26.7163 6.555 26.3534 6.24656 25.9204 6.08334C25.4874 5.92011 25.0113 5.91221 24.5731 6.061L22.1391 6.885C21.7197 6.60259 21.2813 6.34933 20.8271 6.127L20.3231 3.607C20.2323 3.1538 19.9873 2.74604 19.6298 2.45307C19.2723 2.1601 18.8243 2 18.3621 2H13.6421C13.1798 2.00005 12.7317 2.16029 12.3742 2.45346C12.0167 2.74663 11.7717 3.15461 11.6811 3.608L11.1771 6.126C10.7178 6.34621 10.2744 6.59816 9.85012 6.88L7.43012 6.061C6.99225 5.91274 6.51651 5.9209 6.08398 6.0841C5.65146 6.2473 5.28891 6.55544 5.05812 6.956L2.69812 11.044C2.46693 11.4443 2.38154 11.9123 2.45647 12.3685C2.5314 12.8246 2.76202 13.2407 3.10912 13.546L5.04012 15.243C5.02312 15.495 5.00212 15.745 5.00212 16C5.00212 16.258 5.01212 16.513 5.03012 16.766L3.11012 18.454C2.7627 18.759 2.53169 19.175 2.45639 19.6312C2.3811 20.0873 2.46616 20.5555 2.69712 20.956L5.05712 25.044C5.28798 25.445 5.65087 25.7534 6.08383 25.9167C6.51679 26.0799 6.99298 26.0878 7.43112 25.939L9.86512 25.115C10.2844 25.3979 10.7228 25.6515 11.1771 25.874L11.6801 28.392C11.7708 28.8456 12.0158 29.2537 12.3736 29.5469C12.7313 29.84 13.1796 30.0002 13.6421 30H16.0021V28H13.6421L12.9321 24.45C11.9499 24.0851 11.0382 23.5533 10.2371 22.878L6.79012 24.044L4.43012 19.956L7.15512 17.561C6.96868 16.5269 6.96631 15.4679 7.14812 14.433L4.43012 12.043L6.79012 7.956L10.2171 9.116C11.0239 8.43973 11.9428 7.90975 12.9321 7.55L13.6421 4H18.3621L19.0721 7.55C20.0543 7.91491 20.966 8.44673 21.7671 9.122L25.2141 7.956L27.5741 12.044L24.7761 14.496L26.0941 16L28.8941 13.546C29.2415 13.241 29.4725 12.825 29.5478 12.3688C29.6231 11.9127 29.5381 11.4445 29.3071 11.044Z" fill="#FF002E"/>
</svg>
