<svg width="32" height="32" viewBox="0 0 32 32" fill="none" xmlns="http://www.w3.org/2000/svg">
<g clip-path="url(#clip0_3612_1897)">
<path d="M27.999 24.0004C28.011 24.5331 27.9165 25.0628 27.721 25.5584C27.5255 26.0541 27.233 26.5057 26.8606 26.8867C26.4881 27.2678 26.0433 27.5706 25.5523 27.7773C25.0612 27.9841 24.5338 28.0907 24.001 28.0908C23.4682 28.091 22.9407 27.9846 22.4496 27.7781C21.9584 27.5716 21.5134 27.269 21.1408 26.8882C20.7682 26.5073 20.4754 26.0559 20.2797 25.5603C20.084 25.0647 19.9892 24.5351 20.001 24.0024C20.0241 22.9573 20.4554 21.9627 21.2027 21.2316C21.9499 20.5006 22.9536 20.0911 23.999 20.0908C25.0444 20.0906 26.0483 20.4996 26.7959 21.2302C27.5435 21.9609 27.9753 22.9553 27.999 24.0004Z" fill="#FF002E"/>
<path d="M23.4 32C21.8 32 20.2 31.6 18.8 30.6L6.4 24C5.4 23.2 4.6 22.8 3.8 22C1.4 19.6 0 16.2 0 12.8C0 9.4 1.4 6.2 3.8 3.8C6.2 1.4 9.4 0 12.8 0C16.2 0 19.4 1.4 22 3.8C22.8 4.6 23.2 5.2 24 6.2L31 19C33 22.4 32.4 26.6 29.6 29.4C27.8 31.2 25.8 32 23.4 32ZM12.8 2C10 2 7.2 3.2 5.2 5.2C3.2 7.2 2 10 2 12.8C2 15.8 3.2 18.4 5.2 20.4C5.8 21 6.4 21.4 7.4 22L20 28.8C21.2 29.6 22.4 29.8 23.6 29.8C25.4 29.8 27 29.2 28.2 27.8C30.4 25.6 30.8 22.4 29.2 19.8L22.2 7C21.6 6.2 21.2 5.6 20.6 5C18.4 3.2 15.8 2 12.8 2Z" fill="#FF002E"/>
<path d="M22 14V12L19.2 11C19 10.6 19 10.4 18.8 10L20 7.4L18.6 6L16 7.2C15.6 7 15.4 7 15 6.8L14 4H12L11 6.8C10.6 7 10.4 7 10 7.2L7.4 6L6 7.4L7.2 10C7 10.4 7 10.6 6.8 11L4 12V14L6.8 15C7 15.4 7 15.6 7.2 16L6 18.6L7.4 20L10 18.8C10.4 19 10.6 19.2 11 19.2L12 22H14L15 19.2C15.4 19 15.6 19 16 18.8L18.6 20L20 18.6L18.8 16C19 15.6 19.2 15.4 19.2 15L22 14ZM13 16C11.4 16 10 14.6 10 13C10 11.4 11.4 10 13 10C14.6 10 16 11.4 16 13C16 14.6 14.6 16 13 16Z" fill="#FF002E"/>
</g>
<defs>
<clipPath id="clip0_3612_1897">
<rect width="32" height="32" fill="white"/>
</clipPath>
</defs>
</svg>
