<svg width="32" height="32" viewBox="0 0 32 32" fill="none" xmlns="http://www.w3.org/2000/svg">
<g clip-path="url(#clip0_3612_1888)">
<path d="M30.224 14.2225H28.8771C25.7096 14.2225 24.1227 10.3931 26.3627 8.15312L27.3146 7.2C27.6284 6.86299 27.7993 6.41733 27.791 5.95688C27.7828 5.49643 27.5962 5.05714 27.2706 4.73154C26.9449 4.40595 26.5055 4.21946 26.0451 4.21136C25.5846 4.20326 25.139 4.37418 24.8021 4.68812L23.8496 5.63937C21.6096 7.87875 17.7802 6.2925 17.7802 3.125V1.77812C17.7802 1.30654 17.5929 0.854264 17.2594 0.520801C16.9259 0.187338 16.4737 0 16.0021 0C15.5305 0 15.0782 0.187338 14.7448 0.520801C14.4113 0.854264 14.224 1.30654 14.224 1.77812V3.12562C14.224 6.29312 10.3946 7.87937 8.15459 5.64L7.20209 4.68812C6.86516 4.37418 6.41954 4.20326 5.95908 4.21136C5.49863 4.21946 5.0593 4.40595 4.73362 4.73154C4.40794 5.05714 4.22134 5.49643 4.21313 5.95688C4.20491 6.41733 4.37573 6.86299 4.68959 7.2L5.64271 8.15312C7.88271 10.3931 6.29584 14.2225 3.12834 14.2225H1.78021C1.54394 14.2181 1.30916 14.2608 1.08958 14.3481C0.870008 14.4355 0.670049 14.5657 0.501392 14.7313C0.332735 14.8968 0.198764 15.0943 0.107309 15.3122C0.0158541 15.5301 -0.03125 15.764 -0.03125 16.0003C-0.03125 16.2366 0.0158541 16.4706 0.107309 16.6885C0.198764 16.9064 0.332735 17.1038 0.501392 17.2694C0.670049 17.4349 0.870008 17.5651 1.08958 17.6525C1.30916 17.7398 1.54394 17.7826 1.78021 17.7781H3.12709C6.29459 17.7781 7.88146 21.6081 5.64146 23.8481L4.68959 24.8006C4.37881 25.1382 4.21057 25.5829 4.22005 26.0417C4.22954 26.5004 4.41601 26.9378 4.74047 27.2622C5.06494 27.5867 5.50228 27.7732 5.96105 27.7827C6.41981 27.7921 6.86449 27.6239 7.20209 27.3131L8.15459 26.36C10.3946 24.12 14.224 25.7069 14.224 28.8744V30.2206C14.224 30.6922 14.4113 31.1445 14.7448 31.4779C15.0782 31.8114 15.5305 31.9987 16.0021 31.9987C16.4737 31.9987 16.9259 31.8114 17.2594 31.4779C17.5929 31.1445 17.7802 30.6922 17.7802 30.2206V28.8756C17.7802 25.7081 21.6096 24.1212 23.8496 26.3612L24.8021 27.3131C25.1397 27.6239 25.5844 27.7921 26.0431 27.7827C26.5019 27.7732 26.9392 27.5867 27.2637 27.2622C27.5882 26.9378 27.7746 26.5004 27.7841 26.0417C27.7936 25.5829 27.6254 25.1382 27.3146 24.8006L26.3615 23.8481C24.1215 21.6081 25.7083 17.7781 28.8758 17.7781H30.2221C30.4584 17.7826 30.6931 17.7398 30.9127 17.6525C31.1323 17.5651 31.3322 17.4349 31.5009 17.2694C31.6696 17.1038 31.8035 16.9064 31.895 16.6885C31.9864 16.4706 32.0336 16.2366 32.0336 16.0003C32.0336 15.764 31.9864 15.5301 31.895 15.3122C31.8035 15.0943 31.6696 14.8968 31.5009 14.7313C31.3322 14.5657 31.1323 14.4355 30.9127 14.3481C30.6931 14.2608 30.4584 14.2181 30.2221 14.2225H30.224ZM14.0021 17.0006C13.4087 17.0006 12.8287 16.8247 12.3354 16.495C11.842 16.1654 11.4575 15.6969 11.2304 15.1487C11.0034 14.6005 10.944 13.9973 11.0597 13.4154C11.1755 12.8334 11.4612 12.2989 11.8808 11.8793C12.3003 11.4597 12.8349 11.174 13.4168 11.0583C13.9988 10.9425 14.602 11.0019 15.1501 11.229C15.6983 11.456 16.1669 11.8406 16.4965 12.3339C16.8261 12.8273 17.0021 13.4073 17.0021 14.0006C17.0021 14.7963 16.686 15.5593 16.1234 16.1219C15.5608 16.6846 14.7977 17.0006 14.0021 17.0006ZM19.0021 20.5006C18.7054 20.5006 18.4154 20.4127 18.1687 20.2478C17.9221 20.083 17.7298 19.8487 17.6163 19.5746C17.5027 19.3006 17.473 18.999 17.5309 18.708C17.5888 18.417 17.7316 18.1497 17.9414 17.94C18.1512 17.7302 18.4185 17.5873 18.7095 17.5294C19.0004 17.4716 19.302 17.5013 19.5761 17.6148C19.8502 17.7283 20.0845 17.9206 20.2493 18.1673C20.4141 18.4139 20.5021 18.704 20.5021 19.0006C20.5021 19.3984 20.3441 19.78 20.0627 20.0613C19.7814 20.3426 19.3999 20.5006 19.0021 20.5006Z" fill="#FF002E"/>
</g>
<defs>
<clipPath id="clip0_3612_1888">
<rect width="32" height="32" fill="white"/>
</clipPath>
</defs>
</svg>
